<svg width="251" height="176" viewBox="0 0 251 176" fill="none" xmlns="http://www.w3.org/2000/svg">
<path d="M87.6508 176C136.059 176 175.302 137.049 175.302 88.9999C175.302 40.9512 136.059 1.99994 87.6508 1.99994C39.2426 1.99994 0 40.9512 0 88.9999C0 137.049 39.2426 176 87.6508 176Z" fill="#0057FF" fill-opacity="0.84"/>
<path d="M162.651 174C211.059 174 250.302 135.049 250.302 87C250.302 38.9512 211.059 0 162.651 0C114.243 0 75 38.9512 75 87C75 135.049 114.243 174 162.651 174Z" fill="#2F2E2D" fill-opacity="0.9"/>
<path d="M130.235 54.1393C134.619 54.6714 138.48 55.9341 141.817 57.9274C145.162 59.8603 147.679 62.4871 149.367 65.8077C151.064 69.0679 151.643 72.8646 151.105 77.1976C150.642 80.929 149.34 84.4363 147.202 87.7199C145.124 91.0109 141.994 93.319 137.813 94.6441L151.171 122.93L140.851 121.678L128.227 95.6801C127.55 95.659 126.846 95.6041 126.115 95.5155L115 94.6441L121 53L130.235 54.1393ZM126.986 87.0077C130.518 87.4362 133.306 87.1332 135.351 86.0984C137.463 85.0109 139.032 83.5824 140.055 81.8128C141.086 79.9831 141.71 78.1956 141.926 76.4503C142.144 74.7051 141.941 72.8479 141.32 70.8789C140.701 68.9098 139.527 67.1487 137.805 65.5956C136.143 64.0501 124.105 62.3768 121 62L116.342 86.0984L126.986 87.0077Z" fill="white"/>
<rect width="9.65023" height="66.5945" transform="matrix(-0.992546 -0.121869 -0.121869 0.992546 122.694 53.1761)" fill="#0057FF"/>
</svg>
