<svg width="250" height="174" viewBox="0 0 250 174" fill="none" xmlns="http://www.w3.org/2000/svg">
<path d="M87.6508 174C136.059 174 175.302 135.049 175.302 87C175.302 38.9512 136.059 0 87.6508 0C39.2426 0 0 38.9512 0 87C0 135.049 39.2426 174 87.6508 174Z" fill="#0057FF" fill-opacity="0.84"/>
<path d="M162.189 174C210.597 174 249.839 135.049 249.839 87C249.839 38.9512 210.597 0 162.189 0C113.78 0 74.5377 38.9512 74.5377 87C74.5377 135.049 113.78 174 162.189 174Z" fill="#2F2E2D" fill-opacity="0.9"/>
<rect x="115" y="64" width="25" height="23" fill="#0057FF"/>
<path d="M127.969 57.224C131.765 57.6867 135.109 58.7847 137.998 60.5181C140.895 62.1991 143.074 64.4834 144.536 67.371C146.005 70.2061 146.507 73.5078 146.041 77.2758C145.64 80.5206 144.512 83.5706 142.661 86.4261C140.862 89.288 138.151 91.2952 134.531 92.4475L146.098 117.046L137.162 115.957L126.23 93.3484C125.644 93.3301 125.034 93.2823 124.401 93.2052L115.939 92.1739L113.356 113.055L105.684 112.12L112.705 55.3636L127.969 57.224ZM125.156 85.8068C128.214 86.1794 130.628 85.9159 132.399 85.016C134.228 84.0704 135.587 82.8281 136.472 81.2893C137.365 79.6981 137.905 78.1437 138.093 76.6259C138.281 75.1083 138.106 73.4933 137.568 71.7809C137.032 70.0686 136.016 68.5372 134.524 67.1866C133.085 65.8425 131.021 65.0065 128.332 64.6788H127.969L115.939 85.016L125.156 85.8068Z" fill="white"/>
</svg>
