<svg width="189" height="132" viewBox="0 0 189 132" fill="none" xmlns="http://www.w3.org/2000/svg">
<ellipse cx="66" cy="66" rx="66" ry="66" fill="#0057FF" fill-opacity="0.84"/>
<circle cx="122.126" cy="66" r="66" fill="white" fill-opacity="0.9"/>
<path d="M96.0652 42.8994C98.9237 43.2504 101.441 44.0834 103.617 45.3984C105.798 46.6736 107.439 48.4065 108.54 50.5971C109.646 52.7479 110.024 55.2526 109.673 58.1111C109.371 60.5727 108.522 62.8865 107.128 65.0527C105.773 67.2238 103.732 68.7465 101.006 69.6207L109.716 88.2813L102.987 87.4551L94.7556 70.3041C94.314 70.2902 93.855 70.254 93.3786 70.1955L87.0065 69.4131L85.0614 85.2541L79.2848 84.5448L84.5715 41.4881L96.0652 42.8994ZM93.9468 64.5829C96.2496 64.8656 98.0675 64.6657 99.4006 63.983C100.778 63.2656 101.801 62.3232 102.468 61.1558C103.14 59.9487 103.547 58.7695 103.688 57.6181C103.83 56.4668 103.698 55.2416 103.293 53.9426C102.889 52.6436 102.124 51.4818 101.001 50.4572C99.9171 49.4376 98.3628 48.8034 96.338 48.5548L89.6681 47.7358L87.6938 63.8151L93.9468 64.5829Z" fill="black"/>
<path d="M87.4643 41.9089L84.3601 64.2751L81.2559 86.6413" stroke="#0057FF" stroke-width="7"/>
</svg>
