<svg width="181" height="127" viewBox="0 0 181 127" fill="none" xmlns="http://www.w3.org/2000/svg">
<circle cx="63.5" cy="63.5" r="63.5" fill="#0057FF" fill-opacity="0.84"/>
<circle cx="117.5" cy="63.5" r="63.5" fill="#1D1D1D" fill-opacity="0.9"/>
<path d="M95.9957 41.8034C98.8543 42.1544 101.372 42.9874 103.547 44.3024C105.728 45.5777 107.369 47.3106 108.471 49.5011C109.577 51.652 109.954 54.1566 109.603 57.0152C109.301 59.4767 108.453 61.7906 107.058 63.9568C105.704 66.1279 103.663 67.6505 100.936 68.5247L109.647 87.1854L102.917 86.3591L94.6862 69.2081C94.2446 69.1942 93.7856 69.158 93.3092 69.0995L86.937 68.3171L84.992 84.1581L79.2154 83.4489L84.5021 40.3922L95.9957 41.8034ZM93.8774 63.4869C96.1801 63.7696 97.998 63.5697 99.3312 62.8871C100.709 62.1696 101.731 61.2272 102.399 60.0598C103.071 58.8527 103.477 57.6735 103.619 56.5222C103.76 55.3708 103.628 54.1456 103.224 52.8466C102.819 51.5476 102.055 50.3858 100.931 49.3613C99.8476 48.3416 98.2933 47.7075 96.2686 47.4588L89.5986 46.6399L87.6244 62.7191L93.8774 63.4869Z" fill="white"/>
<path d="M87.8027 40.7987L84.8161 62.3177L81.8295 83.8367" stroke="#0057FF" stroke-width="7"/>
</svg>
