<svg width="2454" height="1548" viewBox="0 0 2454 1548" fill="none" xmlns="http://www.w3.org/2000/svg">
<g style="mix-blend-mode:darken">
<rect width="2454" height="1548" fill="#0602EC"/>
<mask id="mask0_18:15" style="mask-type:alpha" maskUnits="userSpaceOnUse" x="0" y="0" width="2454" height="1548">
<rect width="2454" height="1548" fill="#01002D"/>
</mask>
<g mask="url(#mask0_18:15)">
<path fill-rule="evenodd" clip-rule="evenodd" d="M840.014 482.144C839.849 445.742 773.784 404.806 745.564 383.701C689.765 341.959 631.73 303.412 574.234 264.25C516.738 225.087 459.086 186.031 404.26 143.036C368.661 115.126 326.833 83.6923 302.69 43.8397C251.258 -41.0886 413.418 -28.4768 455.423 -30.3346C562.282 -35.08 684.849 -32.9144 785.012 -77.1408C844.806 -103.543 868.649 -147.822 855.806 -212.357C851.667 -233.345 839.414 -257.497 849.794 -277.943C860.877 -299.78 886.376 -312.382 907.538 -320.832C984.728 -351.618 1073.48 -355.185 1155.15 -359.05C1243.21 -363.296 1332.11 -362.054 1419.55 -362.383C1456.63 -362.521 1495.35 -376.184 1530.66 -387.288C1576.95 -401.843 1622.69 -418.192 1668.6 -433.999C1769.59 -468.692 1873.65 -505.233 1980.5 -514.044C2047.42 -519.564 2120.55 -512.101 2172.53 -464.085C2198.63 -439.976 2212.29 -404.136 2227.38 -372.298C2245.64 -333.837 2263.18 -295.003 2282.63 -257.146C2345.27 -135.221 2434.7 -16.0773 2579.86 -10.0899C2601.82 -9.18753 2623.38 -12.1281 2645.24 -12.6802C2659.16 -13.0199 2671.54 -9.56978 2676.72 5.36699C2689.73 42.831 2648.84 101.973 2632.07 131.698C2595.37 196.764 2553.97 258.91 2515.2 322.67C2489.54 364.837 2445.14 422.461 2444.67 473.694C2444.26 519.343 2503.45 552.337 2535.68 574.822C2565.87 595.874 2620.59 625.333 2623.9 668.158C2625.5 688.923 2612.15 706.132 2598.21 719.487C2573.78 742.842 2545.63 759.318 2523.65 785.964C2487.61 829.681 2457.49 889.832 2462.39 948.74C2465.78 989.559 2488.49 1016.29 2517.37 1041.84C2529.51 1052.59 2539.36 1060.19 2540 1077.63C2541.04 1105.33 2530.46 1134.64 2521.75 1160.32C2490.58 1252.22 2446.31 1341.09 2397.06 1424.06C2372.45 1465.53 2345.87 1506.87 2313.24 1542.24C2291.87 1565.47 2263.05 1593.11 2230.45 1593.08C2192.71 1593.08 2152.77 1579.11 2116.09 1568.66C2047.57 1549.14 1979.88 1526.57 1912.46 1503.42C1756.54 1449.85 1602.09 1391.94 1449.11 1329.7C1341.35 1285.78 1231.3 1241.8 1129.99 1183.41C1110.23 1171.94 1091.58 1158.57 1074.29 1143.48C1055.82 1127.63 1032.9 1120.54 1009.66 1115.25C865.399 1082.44 707.357 1107.63 562.499 1123.43C525.731 1127.43 488.962 1131.45 452.091 1134.26C420.393 1136.67 382.445 1143.58 351.638 1133.19C290.934 1112.76 344.001 1037.44 366.436 1006.75C445.426 898.685 547.338 807.26 641.799 713.924C686.712 669.475 731.966 625.142 774.436 578.177C796.551 553.76 840.159 514.056 840.014 482.144Z" stroke="#C5C6D5" stroke-opacity="0.4" stroke-width="5"/>
<path fill-rule="evenodd" clip-rule="evenodd" d="M867.235 476.007C843.024 437.488 800.545 409.018 765.284 382.224C714.542 343.652 662.205 307.223 610.655 269.744C561.911 234.302 513.064 198.457 467.924 158.208C440.399 133.664 405.863 104.313 392.825 68.0117C364.544 -10.6714 516.688 1.26636 554.248 -0.792241C647.624 -5.88569 753.489 -7.05297 839.876 -48.4797C893.818 -74.3501 915.979 -117.252 904.474 -176.813C900.497 -197.42 893.331 -215.014 902.403 -235.515C912.893 -259.242 937.022 -274.034 959.141 -284.476C1028.43 -317.191 1110.33 -324.141 1185.44 -329.924C1263.04 -335.898 1343.88 -340.111 1418.98 -335.739C1449.01 -333.999 1483.58 -343.878 1513.3 -351.455C1559.03 -363.127 1604.29 -376.593 1649.8 -389.114C1742.27 -414.582 1837.15 -439.115 1933.35 -441.906C2002.81 -443.922 2075.22 -432.992 2133.01 -390.749C2191.57 -347.911 2217.55 -281.505 2250.03 -218.378C2306.11 -109.24 2381.86 23.4547 2511.62 46.5132C2531.3 50.0149 2550.2 48.1155 2569.86 48.9751C2579.97 49.4101 2591.47 50.7895 2596.6 61.0082C2609.9 87.5366 2573.44 136.041 2561.17 156.362C2527.27 212.517 2489.15 265.924 2453.62 320.997C2425.4 364.726 2389.63 413.316 2378.72 465.152C2365.47 528.056 2452.01 572.815 2482.45 617.106C2535.21 693.911 2435.25 737.673 2385.97 774.292C2329.37 816.334 2282.66 893.033 2333.39 958.081C2352.8 982.954 2376.68 997.778 2385.34 1030.24C2398.9 1081 2388.65 1139.01 2377.65 1189.2C2361.08 1264.63 2334.86 1339.25 2299.22 1407.43C2273.68 1456.24 2231.31 1532.78 2169.27 1527.04C2127.51 1523.21 2085.05 1509.21 2044.39 1496.84C1983.5 1478.32 1923.37 1457.22 1863.57 1435.29C1725.52 1384.83 1588.99 1329.18 1455.14 1267.97C1363.82 1226.2 1109.07 1055.47 1089.9 1049.38C1032.75 1031.24 967.767 1034.43 908.844 1037.24C830.463 1040.98 752.475 1050.65 674.549 1059.62C637.455 1063.87 600.175 1069.05 562.885 1071.14C536.343 1072.63 501.486 1073.9 478.238 1058.08C432.86 1027.21 483.416 956.585 504.324 926.703C568.373 835.095 649.395 755.765 725.364 674.652C762.644 634.827 800.494 595.067 834.336 552.048C847.984 534.677 882.199 499.798 867.235 476.007Z" stroke="#C5C6D5" stroke-opacity="0.4" stroke-width="5"/>
<path fill-rule="evenodd" clip-rule="evenodd" d="M900.731 456.252C834.61 379.171 743.349 321.843 664.586 257.467C625.054 225.147 585.273 191.945 551.177 153.447C533.441 133.428 511.294 108.113 507.877 80.2083C498.744 5.55777 635.874 15.652 676.917 12.818C756.271 7.31979 845.916 3.14843 917.908 -34.9464C961.892 -58.2342 983.553 -96.4564 975.332 -146.694C971.687 -168.984 966.013 -187.92 975.332 -209.807C984.775 -231.98 1004.45 -247.625 1024.37 -259.354C1081.62 -293.087 1152.76 -303.871 1217.21 -311.906C1292.82 -321.265 1369 -324.919 1445.14 -322.839C1511.82 -321.045 1578.18 -341.223 1643.28 -354.522C1729.53 -372.132 1817.35 -387.512 1905.6 -385.187C1975.31 -383.34 2045.56 -368.83 2105.15 -330.269C2165.7 -290.996 2202.1 -232.214 2234.92 -168.782C2284.54 -72.8926 2346.38 55.6044 2455.23 92.0221C2471.06 97.3293 2485.81 97.9131 2502.14 98.8365C2510.07 99.2823 2520.31 99.4202 2524.25 107.901C2533.71 128.323 2498.73 167.914 2488.96 181.713C2457.8 225.763 2424.01 267.827 2392.07 311.293C2362.25 351.871 2329.77 394.159 2311.24 441.711C2281.77 517.444 2376.01 561.727 2373.37 633.894C2371.72 678.697 2329.88 710.826 2296.75 733.053C2255.95 760.385 2197.22 778.355 2176.8 828.231C2161.59 865.381 2185.45 887.003 2203.83 915.194C2234.98 962.959 2237.1 1027.71 2233.86 1083C2229.49 1157.71 2212.42 1233.53 2183.35 1302.2C2170.18 1333.33 2154.05 1365.72 2130.3 1389.9C2108.05 1412.56 2086.99 1418.37 2057.25 1413.73C1966.22 1399.5 1874.3 1359.86 1787.01 1324.45C1677.33 1279.96 1569.16 1230.83 1464.22 1175.56C1392.66 1137.87 1319.49 1097.99 1256.68 1045.92C1240.31 1032.34 1223.55 1017.59 1211.58 999.684C1202.53 986.225 1198.69 975.112 1183.44 967.427C1138.23 944.66 1075.35 950.614 1026.92 952.981C949.467 956.749 872.392 966.78 795.419 975.813C750.503 981.12 665.89 997.816 630.024 957.768C599.065 923.187 636.422 864.224 655.505 833.761C703.776 756.723 765.869 689.109 823.479 619.49C849.882 587.583 877.32 555.433 899.126 519.96C904.696 510.916 913.622 498.933 915.154 487.947C916.873 475.358 908.848 465.752 900.731 456.252Z" stroke="#C5C6D5" stroke-opacity="0.4" stroke-width="5"/>
<path fill-rule="evenodd" clip-rule="evenodd" d="M906.415 474.196C845.317 406.043 771.709 350.051 706.117 286.274C676.707 257.678 647.007 227.68 624.598 192.796C612.544 174.037 599.744 150.423 603.068 127.106C612.606 60.1847 725.389 66.229 770.953 62.3093C838.658 56.5519 916.439 50.7519 976.305 14.6673C1015.52 -8.96774 1030.23 -43.8733 1022.91 -88.8914C1015.05 -137.181 1032.62 -172.235 1072.61 -199.174C1122.75 -232.922 1186.05 -246.678 1244.27 -256.451C1314.41 -268.168 1385.44 -273.363 1456.5 -271.97C1525.6 -270.61 1592.55 -282.486 1661.19 -290.209C1752.21 -300.438 1846.15 -305.484 1936.14 -284.515C2014.49 -266.255 2085.26 -226.017 2138.31 -163.791C2193.72 -98.8446 2221.15 -17.0196 2266.15 54.831C2294.21 99.6473 2333.35 158.931 2385.79 176.352C2403.28 182.163 2435.15 174.323 2421.18 202.909C2413.2 219.257 2398.26 233.597 2386.45 246.96C2367.38 268.556 2347.67 289.556 2328.27 310.854C2286.93 356.255 2242.66 402.622 2211.68 456.382C2172.64 524.069 2230.67 576.162 2223.6 644.794C2219.8 681.728 2194.76 711.206 2168.27 734.363C2151.13 749.362 2132.38 762.353 2113.23 774.473C2093.23 787.135 2069.57 796.78 2052.13 813.15C2027.28 836.445 2038.07 864.021 2042.73 894.136C2050.93 947.059 2052.73 1000.82 2048.09 1054.2C2042.42 1119.62 2029.11 1186.91 2001.08 1246.37C1990.17 1269.51 1976.36 1294.05 1955.84 1309.57C1935.33 1325.09 1914.11 1324.03 1890.6 1319.35C1820.88 1305.54 1751.3 1273.41 1685.16 1242.96C1602.37 1204.83 1521.22 1162.23 1443.72 1113.76C1390.22 1080.29 1336.55 1044.15 1291.79 998.778C1278.77 985.574 1266.39 971.435 1256.37 955.65C1249.5 944.826 1245.81 930.858 1235.85 922.721C1204.68 897.322 1142.1 904.907 1105.54 906.383C1032.59 909.326 960.782 923.316 887.92 926.715C848.154 928.574 785.876 933.248 756.673 898.523C729.21 865.88 754.084 814.467 770.498 783.014C802.756 721.169 846.094 666.071 884.938 608.582C900.906 584.925 918.407 560.175 928.752 533.162C937.948 509.091 922.073 491.67 906.415 474.196Z" stroke="#C5C6D5" stroke-opacity="0.4" stroke-width="5"/>
<path fill-rule="evenodd" clip-rule="evenodd" d="M921.43 475.09C872.798 415.116 814.171 361.878 765.187 300.929C736.514 265.236 687.137 205.23 709.311 154.909C733.638 99.6136 818.434 98.1074 867.449 93.6523C925.787 88.3487 994.296 81.1039 1044.22 46.5773C1060.01 35.6624 1073.46 21.2153 1079.16 2.18587C1085.27 -18.1801 1078.6 -36.0003 1077.73 -56.3875C1075.9 -99.156 1100.8 -133.492 1133.75 -157.072C1180.31 -190.41 1238.53 -206.173 1293.53 -217.162C1355.84 -229.556 1419.18 -235.667 1482.65 -235.406C1543.3 -235.194 1603.32 -236.573 1664.03 -238.164C1743.44 -240.286 1823.96 -236.86 1900.99 -215.231C1976.86 -193.911 2045.85 -153.953 2100.04 -95.1782C2152.9 -37.8247 2188.57 32.2787 2219.81 103.687C2237.53 144.217 2267.48 204.785 2309.76 225.257C2328.56 234.368 2347.01 233.742 2327.01 257.439C2301.84 287.277 2267.91 311.218 2238.75 336.739C2196.69 373.568 2153.57 411.117 2118.27 454.904C2095.72 482.865 2085.67 509.998 2087.23 546.201C2088.43 573.78 2093.87 601.072 2091.12 628.757C2084.67 693.737 2034.77 738.298 1990.65 779.794C1962.26 806.482 1936.34 826.837 1921.73 864.801C1904.45 909.669 1897.2 958.484 1885.65 1005.07C1872.97 1056.23 1858.31 1109.45 1830.62 1154.51C1805.98 1194.62 1776 1212.61 1731.14 1201.8C1661.16 1184.96 1592.18 1143.46 1530.06 1105.08C1466.82 1066.02 1404.68 1022.11 1352.28 968.423C1323.99 939.433 1304.68 905.395 1279.56 874.252C1247.96 835.153 1176.47 849.961 1133.98 853.271C1063.46 858.765 841.539 899.879 862.016 766.715C870.563 711.133 904.223 659.836 928.839 610.788C939.042 590.433 953.807 566.005 956.114 542.679C958.629 517.275 936.051 493.143 921.43 475.09Z" stroke="#3C2E2B" stroke-width="5"/>
<path fill-rule="evenodd" clip-rule="evenodd" d="M947.12 480.404C909.956 426.056 865.479 374.711 833.591 316.012C812.904 277.997 792.59 227.204 819.276 186.981C849.395 141.59 915.81 131.009 964.61 125.225C1014.89 119.272 1074.91 114.262 1116.01 79.8451C1129.08 68.8821 1139.86 54.0985 1141.86 36.3963C1143.8 19.4158 1138.34 2.43537 1140.15 -14.8529C1144.2 -53.6745 1167.15 -85.6614 1196.75 -108.861C1284.28 -177.494 1414.57 -192.755 1520.18 -194.549C1573.05 -195.44 1627.45 -190.76 1680.66 -187.406C1749.7 -183.055 1818.85 -173.716 1884.69 -151.206C2024.69 -103.364 2118.53 2.74318 2184.06 134.777C2204.69 176.337 2220.47 221.303 2252.79 254.702C2269.46 271.947 2265.82 284.332 2248.78 300.061C2222.15 324.64 2189.66 343.425 2160.1 363.939C2118.05 393.114 2075.1 422.723 2037.92 457.671C2012.29 481.762 1994.1 504.973 1988.57 541.099C1984.63 566.856 1985.55 593.101 1983.18 619.018C1978.67 668.25 1963.23 717.112 1935.89 757.95C1914.17 790.319 1888.31 819.738 1861.59 847.787C1826.84 884.306 1797.46 921.408 1771.07 964.751C1736.09 1022.12 1686.94 1127.95 1604.54 1099.95C1513.67 1069.04 1428.49 990.519 1370.18 914.435C1350.6 888.89 1334.53 857.562 1308.12 838.724C1268.59 810.568 1228.48 811.555 1181.46 811.672C1111.06 811.831 957.877 827.506 956.222 719.34C955.57 676.486 973.65 635.966 982.308 594.746C992.072 548.581 972.502 517.443 947.12 480.404Z" stroke="#393129" stroke-width="5"/>
<path fill-rule="evenodd" clip-rule="evenodd" d="M974.8 485.25C938.04 414.416 855.61 298.022 918.304 219.256C951.421 177.63 1010 161.987 1059.13 152.665C1098.68 145.125 1146.37 142.293 1176.24 110.329C1198.21 86.827 1188.46 52.6247 1196.87 23.2053C1207.31 -13.2665 1231.28 -43.11 1260.73 -65.5404C1343.04 -128.229 1457.48 -147.467 1556.49 -151.561C1659.32 -155.803 1772.62 -135.96 1869.38 -97.7914C1990.03 -50.1839 2080.42 39.9618 2143.64 154.118C2155.3 175.191 2165.9 196.815 2177.09 218.143C2184.62 232.449 2195.77 246.289 2201.7 261.338C2211.58 286.431 2199.94 306.942 2181.3 323.295C2154.47 346.839 2121.52 363.595 2090.94 381.264C2049.12 405.444 2006.36 429.19 1967.46 457.559C1941.32 476.649 1913.96 497.213 1904.6 530.333C1898.22 552.923 1896.89 576.848 1897.12 600.244C1897.62 650.407 1895.05 690.973 1872.22 736.915C1834.65 812.341 1776.88 880.162 1715.86 936.593C1667.96 980.881 1592.17 1049.68 1522.39 1020.07C1459.78 993.555 1423.15 930.092 1381.9 878.783C1361.85 853.84 1339.32 831.059 1312.84 813.316C1279.47 790.95 1248.05 781.564 1208.5 777.905C1141.95 771.743 1041.59 770.142 1021.02 688.268C1013.42 658.054 1017.76 626.757 1013.77 596.15C1008.57 555.68 993.345 520.979 974.8 485.25Z" stroke="#C5C6D5" stroke-opacity="0.4" stroke-width="5"/>
<path fill-rule="evenodd" clip-rule="evenodd" d="M1013.02 487.873C986.847 410.367 952.459 312.689 1015.68 243.805C1046.31 210.435 1089.38 191.781 1131.07 177.841C1160.93 167.85 1208.34 164.909 1226.64 134.193C1240.09 111.59 1241.95 80.4068 1254.11 56.1891C1270.83 22.8936 1296.15 -4.53046 1325.85 -25.9984C1403.23 -81.9402 1504.02 -103.557 1595.93 -109.747C1795.64 -123.177 1998.84 -16.2094 2105.71 159.781C2137.58 212.24 2178.71 268.076 2127.21 321.671C2070.99 380.14 1986.3 407.532 1919.2 449.077C1893.56 464.939 1860.89 484.008 1846.59 512.727C1837.98 529.991 1837.39 551.65 1837 570.655C1835.96 619.058 1832.04 662.589 1813.07 707.754C1783.76 777.551 1737.02 841.944 1684.06 894.691C1637.87 940.684 1572 994.736 1504.92 961.579C1453.48 936.098 1420.86 882.014 1380.9 842.146C1336.43 797.745 1281.43 767.826 1221.03 753.206C1162.27 739.022 1097.83 729.456 1066.87 669.193C1056.24 648.521 1045.15 621.755 1041.17 598.875C1034.74 561.151 1025.33 524.027 1013.02 487.873V487.873Z" stroke="#935C4F" stroke-width="5"/>
<path fill-rule="evenodd" clip-rule="evenodd" d="M1055.64 488.419C1043.53 410.155 1042.19 328.547 1098.45 266.864C1124.71 238.087 1157.91 217.642 1191.47 199.119C1216.17 185.49 1241.67 173.994 1260.12 151.649C1277.2 130.961 1290.19 106.939 1306.69 85.7094C1328.46 57.5753 1354.5 33.2204 1383.81 13.581C1457.3 -35.5555 1546.7 -58.5368 1632.22 -66.5087C1673.62 -70.3831 1718.54 -72.4 1759.66 -61.8381C1799.37 -51.6478 1838.64 -35.5343 1875.16 -16.7458C1952.79 23.1557 2020.06 81.5908 2068.83 155.471C2102.28 206.146 2120.36 255.421 2077.05 306.829C2028.23 364.776 1951.68 396.748 1888.58 434.357C1845.31 460.151 1796.8 485.436 1788.72 540.251C1782.28 583.868 1777.06 625.266 1760.4 666.495C1735.62 727.307 1699.17 782.395 1653.23 828.489C1611.22 870.482 1558.07 906.116 1497.98 883.687C1450.37 865.886 1413.43 826.005 1371.83 797.494C1325.47 765.649 1274.53 748.092 1220.9 733.974C1172.7 721.236 1127.31 701.662 1096.16 660.105C1089.78 651.613 1083.08 642.367 1078.17 632.867C1071.89 620.744 1072.38 608.728 1071.15 595.141C1067.94 559.284 1061.12 523.841 1055.64 488.419Z" stroke="#393129" stroke-width="5"/>
<path fill-rule="evenodd" clip-rule="evenodd" d="M1102.64 482.022C1103.67 407.683 1121.1 337.426 1168.85 279.492C1189.26 254.709 1213.64 234.296 1236.1 211.586C1254.18 193.277 1271.27 176.266 1292.06 161.179C1341.39 125.456 1381.48 79.2277 1433.9 47.4167C1503.88 4.88866 1584.04 -18.6187 1663.57 -28.0174C1702.41 -32.6104 1742.53 -34.2158 1781.82 -29.0274C1815.57 -24.5726 1847.89 -8.93294 1877.87 7.06825C1936.64 38.4114 1993.69 82.9596 2031.85 139.32C2115.97 263.576 1950.12 353.917 1864.99 406.821C1825.84 431.158 1766.03 459.344 1749.99 507.549C1738.53 541.986 1731.54 577.008 1716.78 610.382C1677.13 700.01 1596.63 805.426 1489.35 791.392C1443.45 785.396 1401.61 761.038 1358.76 744.686C1314.64 727.845 1269.1 718.457 1223.24 708.154C1180.37 698.532 1146.21 684.838 1118.53 648.126C1105.3 630.594 1106.47 609.606 1105.29 588.097C1103.36 552.767 1102.17 517.235 1102.64 482.022Z" stroke="#C5C6D5" stroke-opacity="0.4" stroke-width="5"/>
<path fill-rule="evenodd" clip-rule="evenodd" d="M1145.43 472.5C1162.66 360.292 1226.67 237.792 1320.78 172.628C1431.49 95.9725 1551.43 31.4232 1683.7 12.8669C1745.02 4.2624 1812.2 0.0291145 1870.06 28.166C1914.1 49.5658 1965.25 81.554 1989.49 126.539C2048.78 236.572 1916.9 324.166 1841.75 375.071C1801.3 402.476 1749.8 429.18 1719.31 469.2C1701.62 492.404 1692.59 523.097 1678.31 548.582C1635.03 625.81 1563.78 688.099 1475.03 699.239C1434 704.385 1392.66 698.019 1351.94 692.959C1310.25 687.781 1268.05 684.969 1226.62 677.744C1193.55 671.973 1154.57 662.201 1142.39 625.905C1127.03 580.167 1138.4 518.323 1145.43 472.5Z" stroke="#C5C6D5" stroke-opacity="0.4" stroke-width="5"/>
<path fill-rule="evenodd" clip-rule="evenodd" d="M1187.39 454.475C1212.52 348.98 1265.75 246.076 1355.22 183.098C1402.67 149.703 1457.75 126.65 1510.64 103.874C1570.58 78.0601 1633.21 58.0231 1697.18 48.0842C1776.82 35.703 1905.81 24.543 1947.43 117.614C1988.73 209.995 1884.36 291.757 1822.64 338.351C1783.07 368.199 1740.73 395.595 1702.92 428.226C1682.42 445.916 1666.63 466.357 1649.28 487.105C1601.34 544.594 1532.98 590.104 1463.31 614.399C1395.79 637.951 1312.26 648.379 1240.98 640.595C1210.22 637.25 1188.24 625.963 1178.94 593.874C1166.05 549.266 1177 498.053 1187.39 454.475Z" stroke="#393129" stroke-width="5"/>
<path fill-rule="evenodd" clip-rule="evenodd" d="M1229.09 426.061C1254.05 333.177 1307.91 248.34 1386.47 192.593C1474.53 130.099 1587.92 95.3733 1692.14 77.7144C1747.54 68.335 1867.59 42.904 1895.82 115.686C1924.06 188.469 1842.43 260.194 1795.45 299.678C1738.43 347.526 1676.95 393.725 1615.55 436.657C1562.2 473.984 1505.27 512.146 1447.48 540.971C1414.89 557.324 1380.94 570.675 1346.03 580.868C1320.18 588.354 1287.32 599.521 1260.22 593.948C1191.86 579.874 1217.14 470.473 1229.09 426.061Z" stroke="#935C4F" stroke-width="5"/>
<path fill-rule="evenodd" clip-rule="evenodd" d="M1280.55 398.247C1335.34 222.592 1508.92 136.202 1676.04 106.09C1714.88 99.1005 1823.75 73.8994 1845.46 127.558C1866.49 179.583 1799.59 241.281 1768.27 270.512C1671.22 361.092 1551.31 428.253 1437.68 494.787C1402.22 515.555 1338.25 560.622 1294.26 539.833C1246.49 517.22 1269.2 434.67 1280.55 398.247Z" stroke="#C5C6D5" stroke-opacity="0.4" stroke-width="5"/>
<path fill-rule="evenodd" clip-rule="evenodd" d="M1336.67 364.438C1384.32 235.082 1522.89 160.891 1650.3 136.433C1681.51 130.448 1760.76 111.816 1784.4 147.914C1806.27 181.306 1754.07 229.691 1734.54 248.918C1691.07 291.733 1639.55 327.003 1588.65 360.905C1541.58 392.27 1494.01 424.421 1444.49 450.948C1418.41 464.912 1369.49 494.707 1339.85 473.146C1307.93 449.951 1326.09 393.162 1336.67 364.438Z" stroke="#C5C6D5" stroke-opacity="0.4" stroke-width="5"/>
<path fill-rule="evenodd" clip-rule="evenodd" d="M1398.51 326.645C1434.82 242.17 1532.08 187.314 1617.88 169.086C1640.96 164.192 1690.86 151.495 1710.33 174.054C1728.26 194.831 1699.36 225.289 1686.54 239.356C1629.7 301.707 1546.47 357.401 1470.21 391.607C1451.04 400.206 1416.57 417.086 1396.85 399.728C1376.62 381.903 1390.17 346.041 1398.51 326.645Z" stroke="#C5C6D5" stroke-opacity="0.4" stroke-width="5"/>
<path fill-rule="evenodd" clip-rule="evenodd" d="M1464.11 291.16C1484.58 249.213 1538.06 217.565 1582.36 207.491C1613.53 200.407 1651.01 206.527 1623.84 243.04C1596.85 279.275 1546.76 312.369 1504.31 327.041C1471.93 338.23 1446.54 327.191 1464.11 291.16Z" stroke="#393129" stroke-width="5"/>
<path fill-rule="evenodd" clip-rule="evenodd" d="M-195.24 581.69C-196.552 498.818 -239.489 412.69 -218.284 328.249C-200.872 258.897 -113.21 253.107 -60.6217 221.686C-18.8318 196.724 4.88428 152.504 27.4843 110.077C47.7902 71.986 66.0294 32.7502 87.4203 -4.71459C101.268 -28.9347 125.046 -76.4948 155.076 -77.3537C183.824 -78.1809 210.186 -41.119 226.885 -19.2106C248.659 9.34666 267.962 39.7915 289.105 68.8048C324.736 117.743 367.487 153.968 416.438 188.251C472.144 227.261 528.77 264.938 586.315 301.282C628.684 328.121 671.342 354.759 712.067 384.25C737.612 402.754 793.994 437.472 794.252 471.586C794.376 487.864 779.34 505.891 769.203 518.902C752.049 540.927 732.497 561.065 712.884 580.768C676.354 617.469 638.274 652.505 600.607 687.966C551.718 733.989 505.019 779.258 462.041 831.505C417.606 885.587 375.155 941.45 331.835 996.55C302.498 1033.88 273.191 1075.8 230.874 1098.7C177.872 1127.33 134.367 1097.14 80.7653 1096.79C34.656 1096.48 38.0558 986.879 32.1965 956.402C26.3166 925.554 13.358 896.838 8.33578 865.916C2.0735 827.317 1.9908 787.826 0.451063 748.813C-1.41935 701.094 -2.16337 655.666 -51.8793 637.469C-80.1732 627.129 -110.782 624.956 -140.068 618.763C-159.041 614.744 -194.827 607.872 -195.24 581.69Z" stroke="#935C4F" stroke-width="5"/>
<path fill-rule="evenodd" clip-rule="evenodd" d="M-172.572 566.948C-177.405 497.481 -205.959 408.568 -178.957 336.859C-155.888 275.58 -83.7423 267.636 -35.162 235.446C4.94214 208.895 22.7949 165.448 42.8418 122.765C58.9249 88.5248 74.5215 53.9557 92.778 20.8098C106.232 -3.61692 126.776 -44.8556 154.751 -49.9108C179.9 -54.4563 206.87 -18.0499 220.987 0.4719C241.582 27.5112 259.197 56.8763 277.392 85.6254C309.361 136.125 342.096 181.537 388.886 218.634C435.883 255.89 487.299 283.747 539.264 312.741C579.917 335.426 620.362 358.769 658.986 384.959C687.758 404.458 729.125 429.415 742.289 464.186C752.711 491.693 699.856 537.339 684.27 553.45C652.187 586.574 618.189 617.671 584.129 648.576C542.607 686.235 499.76 719.169 463.092 762.128C397.507 838.934 342.686 934.58 258.297 991.665C207.398 1026.1 150.756 1034.9 94.1441 1029.75C71.7272 1027.71 66.3455 995.244 63.5201 976.308C58.8214 944.85 58.2315 912.851 54.6195 881.267C51.2353 851.7 43.7215 823.609 37.6671 794.616C31.5402 765.24 29.8222 735.142 25.3099 705.564C22.5155 687.202 19.7522 665.834 7.5295 651.072C-5.11754 635.789 -25.9821 629.385 -44.2178 624.521C-78.4642 615.472 -169.156 615.971 -172.572 566.948Z" stroke="#C5C6D5" stroke-opacity="0.4" stroke-width="5"/>
<path fill-rule="evenodd" clip-rule="evenodd" d="M-143.397 537.868C-151.525 474.102 -162.905 394.681 -129.791 335.932C-102.724 287.896 -44.9968 277.533 -3.76471 246.234C30.5298 220.205 43.4834 178.809 60.5064 140.339C74.4748 108.785 88.5157 77.0928 105.445 47.066C118.285 24.294 134.832 -6.58127 160.325 -14.5255C182.121 -21.3136 206.745 9.09502 218.829 24.2304C239.403 50.0252 256.178 78.9278 272.838 107.448C300.092 154.117 325.17 203.967 363.959 241.927C401.65 278.763 446.423 300.507 492.035 324.954C526.972 343.685 561.691 363.138 594.608 385.475C619.884 402.615 651.206 422.926 664.377 451.447C675.767 476.043 646.526 505.158 631.916 522.51C607.789 551.147 581.012 577.419 554.608 603.798C526.112 632.255 494.551 658.505 466.977 687.663C408.991 749.021 362.665 816.955 291.197 863.963C244.912 894.414 182.629 922.075 127.915 917.101C88.5674 913.516 91.1561 824.189 87.3767 795.647C81.1639 748.978 69.1629 699.945 50.1 656.957C33.7294 620.121 -5.17292 608.761 -40.9585 600.499C-63.3762 595.312 -86.8709 592.512 -108.553 584.494C-133.653 575.203 -139.99 564.596 -143.397 537.868Z" stroke="#C5C6D5" stroke-opacity="0.4" stroke-width="5"/>
<path fill-rule="evenodd" clip-rule="evenodd" d="M-116.183 507.979C-121.022 454.068 -119.934 390.317 -88.5848 343.683C-61.1114 302.835 -12.1962 292.08 22.5938 259.902C49.7459 234.797 60.4098 193.864 75.0119 160.665C92.8576 120.072 117.865 45.0988 162.883 29.8233C204.762 15.6223 248.557 106.339 263.719 133.39C287.721 176.206 307.795 223.16 336.905 262.699C361.975 296.739 395.562 315.557 431.212 335.779C476.666 361.607 545.676 392.232 569.978 442.569C588.094 480.077 529.188 535.838 509.073 561.826C488.035 588.973 472.189 621.151 450.478 647.341C416.217 688.667 360.7 721.941 314.862 747.333C270.3 772.033 212.431 799.372 161.878 797.744C128.653 796.68 122.331 744.046 115.243 718.335C105.086 681.785 91.583 649.032 62.5758 624.172C33.0505 598.865 -1.74986 586.941 -38.3327 576.505C-57.1112 571.187 -78.5323 567.038 -95.3314 556.294C-113.892 544.604 -114.317 528.701 -116.183 507.979Z" stroke="#393129" stroke-width="5"/>
<path fill-rule="evenodd" clip-rule="evenodd" d="M-83.0244 476.905C-82.7558 430.33 -72.3744 380.664 -41.5916 344.738C-15.953 314.813 24.1783 304.81 48.7219 274.219C68.1626 250 78.0586 216 91.0741 187.875C106.992 153.41 129.501 93.2011 169.085 81.2398C207.718 69.5961 241.889 135.912 256.702 162.153C278.395 200.631 295.955 241.415 317.844 279.787C334.992 309.891 355.961 329.294 383.883 348.697C416.659 371.487 462.389 396.732 479.898 434.437C492.521 461.736 461.966 505.358 450.872 529.407C443.434 545.561 436.627 561.968 432.887 579.476C429.974 593.109 429.685 605.727 421.246 617.434C399.997 646.882 353.41 650.725 321.801 660.431C279.82 673.314 235.278 687.953 191.346 690.747C164.343 692.494 150.563 666.973 135.151 649.02C116.94 627.797 91.1568 612.533 68.6378 596.518C38.9189 575.347 6.57631 562.179 -26.8819 548.694C-41.9738 542.607 -59.6997 536.637 -71.393 524.538C-83.6029 511.995 -83.1174 493.714 -83.0244 476.905Z" stroke="#935C4F" stroke-width="5"/>
<path fill-rule="evenodd" clip-rule="evenodd" d="M-48.1986 449.255C-42.8629 410.139 -26.2357 372.752 1.8487 345.1C23.3773 323.87 51.9683 311.917 69.247 286.409C85.3469 262.631 96.5662 235.594 109.864 210.171C123.937 183.294 144.845 138.371 177.304 131.057C212.285 123.18 239.232 168.496 254.153 193.612C273.003 225.351 287.325 259.5 304.18 292.332C316.877 316.804 333.074 339.184 352.231 358.73C372.322 379.334 399.569 399.067 409.734 427.399C418.719 452.493 401.906 482.852 398.938 508.296C395.764 535.482 401.327 564.036 383.728 587.379C347.433 635.518 256.345 626.591 204.271 627.621C152.89 628.682 111.58 599.225 70.0019 571.202C42.5379 552.699 13.9365 537.032 -14.2202 519.793C-42.925 502.203 -52.8931 483.68 -48.1986 449.255Z" stroke="#C5C6D5" stroke-opacity="0.4" stroke-width="5"/>
<path fill-rule="evenodd" clip-rule="evenodd" d="M-15.8421 426.866C-0.0634944 370.198 49.2174 340.078 84.4475 297.253C113.273 262.193 134.887 189.588 183.433 179.984C238.55 169.084 271.545 265.285 290.707 302.405C311.969 343.574 349.838 377.061 365.585 420.641C373.863 443.514 366.754 464.858 362.347 487.721C357.515 512.826 353.883 538.493 337.205 558.7C304.375 598.466 240.257 598.19 194.08 599.284C146.279 600.421 103.992 573.17 65.9064 545.973C25.5133 517.171 -32.0034 484.98 -15.8421 426.866Z" stroke="#C5C6D5" stroke-opacity="0.4" stroke-width="5"/>
<path fill-rule="evenodd" clip-rule="evenodd" d="M10.5854 411.5C28.365 371.125 65.7269 338.301 96.0438 307.315C121.348 281.483 148.569 229.481 187.151 225.774C232.496 221.401 259.978 276.931 277.82 310.98C295.381 344.437 320.685 379.764 330.408 416.485C340.548 454.737 313.546 506.253 287.794 533.321C259.071 563.505 212.08 574.657 171.758 573.453C129.539 572.228 90.8016 547.283 58.8277 521.408C24.6444 493.749 -10.0913 458.37 10.5854 411.5Z" stroke="#935C4F" stroke-width="5"/>
<path fill-rule="evenodd" clip-rule="evenodd" d="M35.1074 403.899C52.0906 370.318 81.5294 341.91 108.673 316.571C129.62 297.009 160.53 263.745 190.751 262.93C223.998 262.031 252.174 289.952 265.391 318.571C278.421 346.798 292.149 382.188 294.1 413.156C298.335 480.593 212.105 556.135 147.355 549.988C85.9629 544.158 1.24552 470.807 35.1074 403.899Z" stroke="#C5C6D5" stroke-opacity="0.4" stroke-width="5"/>
<path fill-rule="evenodd" clip-rule="evenodd" d="M57.7858 400.196C81.2149 356.443 138.125 294.066 190.812 292.585C251.288 290.892 266.469 360.305 258.586 410.608C250.579 461.948 180.854 536.26 125.258 526.218C70.9966 516.42 30.019 452.086 57.7858 400.196Z" stroke="#C5C6D5" stroke-opacity="0.4" stroke-width="5"/>
<path fill-rule="evenodd" clip-rule="evenodd" d="M81.7308 393.121C101.567 356.487 143.897 310.729 188.047 309.344C240.652 307.705 239.659 366.309 227.73 402.785C215.326 440.656 160.695 505.339 114.633 495.125C69.8432 485.156 62.721 428.233 81.7308 393.121Z" stroke="#935C4F" stroke-width="5"/>
<path fill-rule="evenodd" clip-rule="evenodd" d="M102.586 388.905C115.68 362.765 148.45 329.727 179.603 328.67C217.681 327.399 210.279 373.881 200.441 396.316C188.747 423.011 149.549 469.397 116.654 461.879C84.2677 454.479 91.7838 410.443 102.586 388.905Z" stroke="#C5C6D5" stroke-opacity="0.4" stroke-width="5"/>
<path fill-rule="evenodd" clip-rule="evenodd" d="M1893.85 1882.45C1809.56 1934.9 1714.28 1978.19 1624.44 2022.19C1493.14 2086.49 1359.9 2149.05 1221.94 2196.95C1147.97 2222.62 1052.12 2259.63 972.751 2239.52C943.733 2232.17 917.27 2209.93 891.252 2195.48C855.375 2175.56 818.97 2156.63 782.628 2137.65C709.725 2099.61 636.595 2061.95 564.944 2021.47C530.443 2001.97 496.966 1977.42 461.047 1960.78C440.057 1951.06 414.939 1955.61 392.511 1956.22C340.557 1957.65 288.635 1960.37 236.712 1962.68C173.203 1965.5 109.549 1968.51 45.9675 1967.39C17.2906 1966.88 -52.9428 1972.1 -68.7296 1946.77C-77.223 1933.13 -57.2051 1908.53 -47.9255 1897.15C-30.8869 1876.23 -11.3034 1857.38 8.0214 1838.72C52.7126 1795.56 100.176 1754.47 139.902 1706.27C160.313 1681.49 187.055 1651.21 173.731 1617.38C160.282 1583.21 136.984 1553.63 122.77 1519.58C106.404 1480.39 99.6176 1439.61 91.8897 1398.06C86.1688 1367.35 72.8443 1340.14 60.3162 1311.83C46.4744 1280.54 32.1359 1248.98 22.5252 1215.98C16.1732 1194.18 5.92123 1154.96 28.1427 1141.16C59.7162 1121.54 118.922 1137.43 154.913 1143.21C204.652 1151.18 254.03 1161.35 303.635 1170.1C339.647 1176.46 375.782 1183.44 412.394 1184.19C471.413 1185.38 530.629 1181.24 589.493 1177.38C698.49 1170.23 806.706 1160.53 916.07 1160.53C1011.89 1160.53 1233.31 1274.22 1285.13 1294.23C1388.59 1334.19 1494.79 1372.07 1592.69 1425.24C1619.17 1439.64 1659.93 1458.81 1673.87 1488.44C1682.46 1506.7 1678.51 1517.25 1698.79 1529.02C1726.45 1545.07 1761.89 1551.37 1792.51 1558.55C1841.83 1570.11 1891.53 1579.9 1941.07 1590.37C2041.27 1611.5 2140.8 1635.38 2240.59 1658.37C2270.75 1665.32 2307.25 1666.86 2336.01 1679.1C2354.55 1686.96 2352.62 1696.86 2338.27 1708.8C2313.1 1729.76 2277.83 1741.4 2248.1 1753.36C2204.53 1770.87 2160.25 1786.49 2115.96 1801.9C2071.66 1817.3 2027.13 1832.23 1982.81 1847.66C1953.54 1857.82 1920.15 1866.09 1893.85 1882.45Z" stroke="#935C4F" stroke-width="5"/>
<path fill-rule="evenodd" clip-rule="evenodd" d="M1824.49 1870.92C1735.34 1923.47 1636.37 1965.34 1540.97 2006.18C1418.87 2058.49 1294.01 2107.51 1165.36 2140.21C1089.82 2159.4 1000.7 2180.58 923.519 2158.58C895.985 2150.73 875.414 2133.08 851.812 2117.51C824.908 2099.74 796.97 2083.45 769.032 2067.42C711.521 2034.43 653.404 2002.56 594.678 1971.82C563.574 1955.47 529.335 1933.57 494.195 1927.9C466.257 1923.38 434.521 1929.92 406.459 1931.82C355.922 1935.24 305.396 1938.77 254.839 1941.76C196.5 1945.22 137.996 1948.4 79.5327 1947.85C46.9487 1947.54 -8.98949 1952.63 -32.0332 1931.03C-52.1382 1912.19 21.0594 1844.03 33.9315 1831.08C74.1312 1790.65 116.411 1752.15 153.827 1708.91C175.939 1683.42 202.864 1652.41 212.187 1618.62C220.123 1589.82 204.809 1557 195.765 1530.38C184.455 1497.04 175.329 1462.47 162.188 1429.82C150.485 1400.74 131.859 1374.83 115.5 1348.39C97.506 1319.3 79.2842 1289.74 65.9257 1258.01C57.7409 1238.48 44.1962 1205.78 60.4623 1187.17C79.2532 1165.71 137.178 1179.74 160.988 1182.8C209.289 1189.08 257.218 1198.43 305.189 1206.8C384.864 1220.7 460.824 1232.85 541.958 1229.94C647.616 1226.14 753.17 1217.19 858.807 1212.24C897.816 1210.39 937.447 1206.68 976.488 1208.68C998.869 1209.84 1015.91 1216.85 1028.93 1232.67C1046.71 1254.26 1087.65 1266.21 1116.13 1278.59C1160.53 1297.9 1205.49 1315.85 1250.32 1334.04C1348.75 1373.98 1449.06 1412.48 1542.41 1464.14C1571.94 1480.48 1605.76 1498.69 1627.6 1525.69C1639.79 1540.74 1636.71 1555.24 1644.15 1571.24C1654.01 1592.28 1686.39 1601.78 1705.75 1608.66C1743.12 1621.96 1782.01 1630.88 1820.61 1639.23C1907.94 1658.12 1995.48 1670.53 2084.23 1679.68C2105.03 1681.8 2186.93 1689.17 2143.91 1724.65C2096.39 1763.86 2027.76 1783.07 1971.82 1805.17C1921.41 1825.04 1870.97 1843.52 1824.49 1870.92Z" stroke="#C5C6D5" stroke-opacity="0.4" stroke-width="5"/>
<path fill-rule="evenodd" clip-rule="evenodd" d="M1701.28 1861.2C1617.48 1907.43 1524.65 1941.92 1434.39 1974.92C1324.87 2014.96 1212.61 2050.65 1097.74 2070.64C1025.58 2083.19 946.028 2092.83 874.358 2071.98C825.414 2057.75 787.553 2019.27 744.565 1992.79C701.577 1966.32 656.849 1941.47 610.784 1920.75C582.195 1907.9 551.44 1894.95 519.629 1896.65C442.282 1900.76 365.028 1910.57 287.597 1915.33C236.374 1918.52 185.048 1921.14 133.67 1920.35C102.687 1919.88 60.1238 1921.79 32.6943 1905.08C2.37485 1886.59 163.813 1728.75 179.071 1710.98C217.325 1666.43 263.649 1607.31 256.253 1543.96C249.178 1483.4 218.516 1438.18 183.836 1390.73C164.155 1363.74 101.04 1291.62 124.43 1256.51C137.792 1236.45 181.837 1243.39 202.761 1244.76C243.998 1247.46 285.008 1253.25 326.028 1258.28C385.838 1265.56 447.295 1276.82 507.365 1280.11C549.192 1282.41 591.269 1279.34 633.169 1279.28C693.249 1279.19 753.328 1279.66 813.408 1280.21C863.854 1280.68 914.725 1280.21 964.995 1285.17C996.247 1288.23 1019.97 1295.09 1042.38 1314.48C1061.89 1331.34 1091.32 1341.22 1116.18 1351.94C1157.24 1369.64 1198.84 1386.05 1240.3 1402.72C1327.12 1437.64 1414.93 1471.83 1498.03 1515.46C1535.96 1535.37 1599.74 1563.24 1608.63 1611.51C1611.84 1628.92 1614.21 1636.44 1630.78 1646.33C1654.3 1660.38 1682.48 1666.71 1708.87 1672.21C1770.4 1685.05 1833.71 1683.13 1895.14 1695.81C1920.16 1701.04 1952.82 1712.33 1924.26 1738.16C1890.94 1768.38 1842.43 1784.99 1802.5 1803.66C1782.57 1812.97 1762.04 1821.69 1743.12 1833.06C1728.59 1841.82 1716.15 1853.05 1701.28 1861.2Z" stroke="#C5C6D5" stroke-opacity="0.4" stroke-width="5"/>
<path fill-rule="evenodd" clip-rule="evenodd" d="M1542.56 1846.76C1465.14 1884.32 1381.06 1911.62 1298.48 1936.23C1206.77 1963.53 1112.84 1986.15 1017.67 1995.77C951.959 2002.43 881.942 2004.4 818.162 1984C777.827 1971.09 750.483 1943.95 715.774 1921.19C663.391 1886.78 606.716 1859.52 543.784 1866.16C473.229 1873.58 402.444 1879.14 331.428 1882.86C288.59 1885.1 245.587 1886.78 202.698 1885.22C175.581 1884.24 140.645 1882.59 117.055 1869.99C85.4903 1853.12 204.053 1724.73 218.832 1706.02C255.485 1659.61 282.354 1610.92 298.053 1553.42C310.857 1506.5 284.702 1469.62 257.719 1434.53C240.944 1412.73 186.74 1357.91 203.712 1329.61C213.02 1314.01 243.695 1314.81 260.17 1314.02C291.569 1312.51 323.102 1314.08 354.501 1314.77C400.865 1315.83 450.218 1308.53 496.189 1314.41C598.07 1327.42 699.692 1338.69 802.204 1347.61C858.714 1352.52 915.565 1356.99 971.568 1366.46C991.673 1369.86 1012.44 1373.47 1031.49 1381.17C1043.75 1386.11 1050.43 1394.53 1060.77 1401.44C1110.08 1434.34 1174.45 1451.26 1229.99 1472.34C1303.82 1500.37 1378.05 1527.96 1449.91 1561.07C1487.72 1578.48 1540.51 1598.49 1566.52 1634.03C1574.38 1644.77 1571.03 1653.36 1575.98 1663.68C1581.66 1675.59 1598.95 1679.14 1610.1 1682.46C1635.43 1690 1741.45 1701.4 1692.59 1745.61C1669.28 1766.67 1639.58 1780.19 1613.3 1796.74C1603.79 1802.74 1594.51 1808.77 1586.58 1816.86C1573.31 1830.42 1560.23 1838.16 1542.56 1846.76Z" stroke="#393129" stroke-width="5"/>
<path fill-rule="evenodd" clip-rule="evenodd" d="M1373.44 1830.51C1220.6 1891.26 1041.48 1932.65 874.846 1924.63C819.433 1921.95 759.812 1913.02 711.777 1882.45C683.454 1864.4 660.82 1844.02 626.796 1837.49C602.235 1832.79 575.787 1838.13 551.081 1840.06C515.296 1842.87 479.49 1845.38 443.653 1847.4C399.225 1849.88 354.652 1851.79 310.14 1850.77C278.335 1850.04 234.415 1850.87 206.786 1833.34C173.799 1812.44 257.764 1714.38 269.578 1696.91C298.212 1654.57 318.286 1613.54 325.541 1562.5C327.675 1547.63 334.868 1532.39 333.935 1517.4C332.961 1502.1 323.768 1488.47 315.281 1476.44C304.182 1460.66 265.671 1423.26 276.697 1404.02C282.791 1393.4 305.663 1392.06 317.519 1389.81C339.759 1385.56 362.321 1383.28 384.695 1379.9C422.657 1374.14 460.349 1355.4 498.445 1355.93C600.888 1357.33 704.813 1389.92 805.204 1407.81C864.887 1418.49 924.974 1428.17 983.932 1442.63C1002.59 1447.21 1021.8 1451.94 1039.53 1459.71C1051.91 1465.13 1059.85 1474.78 1071.32 1480.85C1115.27 1504.14 1165.81 1518.27 1213.01 1533.95C1274.28 1554.34 1335.75 1574.12 1396.6 1595.83C1434.73 1609.44 1483.77 1621.41 1516.64 1646.64C1540.64 1665.07 1524.23 1670.58 1511.57 1687.75C1505.1 1696.5 1506.59 1705.12 1503.78 1715.03C1499.77 1729.18 1488.44 1739.37 1477.8 1748.52C1463.14 1761.17 1443.6 1771.59 1431.61 1787.1C1427.39 1792.56 1427.58 1799.33 1424.16 1804.09C1414.21 1817.95 1387.82 1824.79 1373.44 1830.51Z" stroke="#935C4F" stroke-width="5"/>
<path fill-rule="evenodd" clip-rule="evenodd" d="M1210.94 1808.86C1086.9 1847.06 948.872 1868.81 817.749 1858.71C772.127 1855.2 726.226 1847.03 683.729 1829.08C664.394 1820.94 649.88 1811.87 628.693 1811.38C579.534 1810.25 530.219 1814.19 481.07 1815.14C445.897 1815.82 410.548 1816.06 375.458 1813.16C351.995 1811.23 320.267 1808.91 301.046 1794.16C273.114 1772.66 323.536 1699.6 333.798 1679.41C350.805 1645.93 367.678 1608.71 360.933 1569.97C358.864 1558.13 355.202 1547.66 354.726 1535.58C354.271 1525.2 355.543 1515.62 351.954 1505.69C347.516 1493.39 327.777 1474.3 334.564 1462.97C339.188 1455.24 352.905 1454.87 362.03 1452.4C376.829 1448.38 391.278 1443.12 405.231 1436.65C419.921 1429.81 432.428 1419.24 447.645 1413.59C472.349 1404.43 500.001 1403.57 525.967 1403.61C629.573 1403.78 734.492 1424.74 835.47 1446.66C888.054 1458.07 940.927 1470.24 992.031 1487.55C1007.55 1492.81 1025.14 1498.09 1038.78 1507.8C1047.29 1513.84 1053.07 1521.42 1062.74 1525.96C1145.37 1564.79 1240.89 1579.21 1328.61 1607.24C1351.44 1614.54 1477.97 1651.42 1411.81 1686.11C1371.62 1707.19 1329.16 1716.78 1292.48 1745.61C1281.31 1754.38 1273.86 1761.63 1269.5 1775.01C1266.62 1783.91 1273.54 1779.4 1263.88 1788.71C1252.16 1799.89 1225.39 1804.41 1210.94 1808.86Z" stroke="#393129" stroke-width="5"/>
<path fill-rule="evenodd" clip-rule="evenodd" d="M1081.96 1786.28C936.73 1817.45 782.931 1818.94 635.407 1791.3C598.217 1784.34 559.513 1786 521.867 1784.23C485.29 1782.54 420.257 1786.06 393.69 1757.22C374.427 1736.3 395.33 1691.86 402.56 1668.47C411.772 1638.67 419.822 1607.89 404.697 1578.95C395.838 1562 383.701 1545.86 374.198 1529.07C369.655 1521.05 360.298 1508.76 364.198 1501.17C370.651 1488.64 400.838 1483.36 415.486 1477.45C462.302 1458.56 511.878 1453.74 561.93 1453.88C654.38 1454.12 747.308 1467.09 837.994 1484.68C879.717 1492.77 922.021 1501.4 962.26 1515.47C985.03 1523.43 1001.83 1538.78 1023.57 1547.88C1093.58 1577.2 1168.8 1592.87 1240.01 1619.68C1260.63 1627.45 1337.62 1653.29 1298.83 1683.77C1261.28 1713.27 1206.51 1709.77 1167.46 1737.52C1163.04 1740.7 1157.58 1744.5 1155.01 1749.64C1153.5 1752.71 1156.16 1758.56 1155.01 1760.31C1143.02 1779.3 1100.4 1782.32 1081.96 1786.28Z" stroke="#C5C6D5" stroke-opacity="0.4" stroke-width="5"/>
<path fill-rule="evenodd" clip-rule="evenodd" d="M987.868 1765.67C913.361 1776.15 837.215 1778.75 761.452 1779.41C720.04 1779.77 674.541 1782.48 634.02 1771.72C609.129 1765.1 585.089 1759.3 559.43 1755.13C531.822 1750.63 487.37 1747.36 470.558 1723C457.999 1704.8 466.607 1667.38 467.063 1645.25C467.551 1620.97 462.697 1602.97 445.989 1585.6C435.482 1574.66 387.287 1534.95 392.856 1523.5C398.156 1512.6 431.738 1510.92 446.258 1508.09C492.151 1499.1 538.656 1495.97 585.337 1496.46C657.636 1497.21 730.204 1504.77 801.372 1517.76C830.795 1523.16 861.204 1528.75 889.31 1539.54C908.237 1546.82 924.023 1559.72 942.826 1567.24C996.674 1588.81 1053.61 1603.45 1107.65 1625.41C1124.99 1632.48 1181.49 1651.28 1167.95 1680.25C1156.65 1704.44 1118.24 1711.8 1099.36 1728.01C1067.25 1755.66 1028.81 1759.92 987.868 1765.67Z" stroke="#C5C6D5" stroke-opacity="0.4" stroke-width="5"/>
<path fill-rule="evenodd" clip-rule="evenodd" d="M940.931 1751.77C881.827 1758.71 821.349 1761.74 761.377 1761.89C722.674 1761.99 681.842 1762.53 643.861 1753.6C624.783 1749.13 608.205 1738.66 590.149 1731.19C571.557 1723.51 545.899 1714.93 537.863 1697.32C530.312 1680.77 533.132 1656.62 526.5 1636.67C520.602 1618.96 508.259 1608.02 494.965 1596.05C486.495 1588.4 442.999 1555.29 448.029 1547.98C453.421 1540.15 479.544 1540.79 493.137 1539.71C530.589 1536.67 568.173 1535.71 605.726 1536.81C656.979 1538.42 708.626 1542.92 758.991 1553.11C794.72 1560.32 821.669 1577.51 854.981 1590.11C898.137 1606.48 942.842 1619.43 985.584 1637.33C1006.88 1646.26 1038.41 1657.74 1049.32 1680.77C1053.51 1689.6 1057.58 1712.05 1052.91 1720.87C1047.3 1731.48 1026.43 1735.98 1016.57 1738.71C991.885 1745.51 966.052 1748.82 940.931 1751.77Z" stroke="#935C4F" stroke-width="5"/>
</g>
</g>
</svg>
